<svg width="1200" height="800" viewBox="0 0 1200 800" fill="none" xmlns="http://www.w3.org/2000/svg">
  <rect width="1200" height="800" rx="24" fill="#FAF7FF"/>
  <text x="600" y="60" text-anchor="middle" font-family="Arial" font-size="28" font-weight="700" fill="#2A2340">BookNest Main ERD</text>

  <rect x="70" y="150" width="250" height="220" rx="18" fill="#FFFFFF" stroke="#6C4DF6" stroke-width="2"/>
  <rect x="70" y="150" width="250" height="48" rx="18" fill="#6C4DF6"/>
  <text x="195" y="181" text-anchor="middle" font-family="Arial" font-size="22" font-weight="700" fill="#FFFFFF">USERS</text>
  <text x="95" y="230" font-family="Arial" font-size="18" fill="#1F1F2E">PK user_id</text>
  <text x="95" y="265" font-family="Arial" font-size="18" fill="#1F1F2E">full_name</text>
  <text x="95" y="300" font-family="Arial" font-size="18" fill="#1F1F2E">email</text>
  <text x="95" y="335" font-family="Arial" font-size="18" fill="#1F1F2E">password</text>

  <rect x="475" y="110" width="250" height="220" rx="18" fill="#FFFFFF" stroke="#6C4DF6" stroke-width="2"/>
  <rect x="475" y="110" width="250" height="48" rx="18" fill="#6C4DF6"/>
  <text x="600" y="141" text-anchor="middle" font-family="Arial" font-size="22" font-weight="700" fill="#FFFFFF">AUTHORS</text>
  <text x="500" y="190" font-family="Arial" font-size="18" fill="#1F1F2E">PK author_id</text>
  <text x="500" y="225" font-family="Arial" font-size="18" fill="#1F1F2E">author_name</text>
  <text x="500" y="260" font-family="Arial" font-size="18" fill="#1F1F2E">bio</text>

  <rect x="475" y="430" width="250" height="260" rx="18" fill="#FFFFFF" stroke="#6C4DF6" stroke-width="2"/>
  <rect x="475" y="430" width="250" height="48" rx="18" fill="#6C4DF6"/>
  <text x="600" y="461" text-anchor="middle" font-family="Arial" font-size="22" font-weight="700" fill="#FFFFFF">BOOKS</text>
  <text x="500" y="510" font-family="Arial" font-size="18" fill="#1F1F2E">PK book_id</text>
  <text x="500" y="545" font-family="Arial" font-size="18" fill="#1F1F2E">title</text>
  <text x="500" y="580" font-family="Arial" font-size="18" fill="#1F1F2E">description</text>
  <text x="500" y="615" font-family="Arial" font-size="18" fill="#1F1F2E">publish_year</text>
  <text x="500" y="650" font-family="Arial" font-size="18" fill="#1F1F2E">FK author_id</text>
  <text x="500" y="685" font-family="Arial" font-size="18" fill="#1F1F2E">FK category_id</text>

  <rect x="880" y="150" width="250" height="190" rx="18" fill="#FFFFFF" stroke="#6C4DF6" stroke-width="2"/>
  <rect x="880" y="150" width="250" height="48" rx="18" fill="#6C4DF6"/>
  <text x="1005" y="181" text-anchor="middle" font-family="Arial" font-size="22" font-weight="700" fill="#FFFFFF">CATEGORIES</text>
  <text x="905" y="230" font-family="Arial" font-size="18" fill="#1F1F2E">PK category_id</text>
  <text x="905" y="265" font-family="Arial" font-size="18" fill="#1F1F2E">category_name</text>

  <line x1="600" y1="330" x2="600" y2="430" stroke="#6C4DF6" stroke-width="4"/>
  <text x="620" y="390" font-family="Arial" font-size="18" font-weight="700" fill="#6C4DF6">1 : N</text>

  <line x1="880" y1="245" x2="725" y2="560" stroke="#6C4DF6" stroke-width="4"/>
  <text x="805" y="390" font-family="Arial" font-size="18" font-weight="700" fill="#6C4DF6">1 : N</text>

  <text x="195" y="430" text-anchor="middle" font-family="Arial" font-size="19" font-weight="700" fill="#2A2340">Users are used for authentication in this demo.</text>
</svg>
